<svg width="300" height="297" viewBox="0 0 300 297" fill="none" xmlns="http://www.w3.org/2000/svg">
<path d="M150 172V197C130.109 197 111.032 204.902 96.967 218.967C82.9018 233.032 75 252.109 75 272H50C50 245.478 60.5357 220.043 79.2893 201.289C98.043 182.536 123.478 172 150 172V172ZM150 159.5C108.562 159.5 75 125.938 75 84.5C75 43.0625 108.562 9.5 150 9.5C191.437 9.5 225 43.0625 225 84.5C225 125.938 191.437 159.5 150 159.5ZM150 134.5C177.625 134.5 200 112.125 200 84.5C200 56.875 177.625 34.5 150 34.5C122.375 34.5 100 56.875 100 84.5C100 112.125 122.375 134.5 150 134.5ZM260.35 260.387L225 297L189.65 260.387C170.112 240.162 170.112 207.388 189.65 187.163C194.208 182.373 199.692 178.56 205.769 175.954C211.845 173.349 218.388 172.005 225 172.005C231.612 172.005 238.155 173.349 244.231 175.954C250.308 178.56 255.792 182.373 260.35 187.163C279.887 207.388 279.887 240.162 260.35 260.387V260.387ZM242.375 243.012C252.537 232.487 252.537 215.063 242.375 204.538C240.149 202.159 237.458 200.263 234.469 198.967C231.481 197.671 228.258 197.002 225 197.002C221.742 197.002 218.519 197.671 215.531 198.967C212.542 200.263 209.851 202.159 207.625 204.538C197.462 215.063 197.462 232.487 207.625 243.025L225 261L242.375 243V243.012Z" fill="white"/>
</svg>
