<svg width="300" height="300" viewBox="0 0 300 300" fill="none" xmlns="http://www.w3.org/2000/svg">
<path d="M68.75 150.003H50V87.503H25V62.503H100V87.503H75V122.441L197.662 89.578L190.412 62.503H150V37.503H199.725C202.523 37.4413 205.261 38.3206 207.501 40C209.74 41.6794 211.351 44.0618 212.075 46.7655L231.487 119.216L207.337 125.678L204.137 113.728L68.75 150.003ZM62.5 237.503C69.1304 237.503 75.4893 234.869 80.1777 230.181C84.8661 225.492 87.5 219.133 87.5 212.503C87.5 205.873 84.8661 199.514 80.1777 194.825C75.4893 190.137 69.1304 187.503 62.5 187.503C55.8696 187.503 49.5107 190.137 44.8223 194.825C40.1339 199.514 37.5 205.873 37.5 212.503C37.5 219.133 40.1339 225.492 44.8223 230.181C49.5107 234.869 55.8696 237.503 62.5 237.503V237.503ZM62.5 262.503C49.2392 262.503 36.5215 257.235 27.1447 247.858C17.7678 238.482 12.5 225.764 12.5 212.503C12.5 199.242 17.7678 186.525 27.1447 177.148C36.5215 167.771 49.2392 162.503 62.5 162.503C75.7608 162.503 88.4785 167.771 97.8553 177.148C107.232 186.525 112.5 199.242 112.5 212.503C112.5 225.764 107.232 238.482 97.8553 247.858C88.4785 257.235 75.7608 262.503 62.5 262.503V262.503ZM225 237.503C234.946 237.503 244.484 233.552 251.517 226.52C258.549 219.487 262.5 209.949 262.5 200.003C262.5 190.057 258.549 180.519 251.517 173.487C244.484 166.454 234.946 162.503 225 162.503C215.054 162.503 205.516 166.454 198.483 173.487C191.451 180.519 187.5 190.057 187.5 200.003C187.5 209.949 191.451 219.487 198.483 226.52C205.516 233.552 215.054 237.503 225 237.503ZM225 262.503C208.424 262.503 192.527 255.918 180.806 244.197C169.085 232.476 162.5 216.579 162.5 200.003C162.5 183.427 169.085 167.53 180.806 155.809C192.527 144.088 208.424 137.503 225 137.503C241.576 137.503 257.473 144.088 269.194 155.809C280.915 167.53 287.5 183.427 287.5 200.003C287.5 216.579 280.915 232.476 269.194 244.197C257.473 255.918 241.576 262.503 225 262.503Z" fill="white"/>
</svg>
