<svg width="300" height="300" viewBox="0 0 300 300" fill="none" xmlns="http://www.w3.org/2000/svg">
<path d="M162.5 262.5V287.5H137.5V262.5H37.5C34.1848 262.5 31.0054 261.183 28.6612 258.839C26.317 256.495 25 253.315 25 250V50C25 46.6848 26.317 43.5054 28.6612 41.1612C31.0054 38.817 34.1848 37.5 37.5 37.5H112.5C119.595 37.4916 126.61 38.997 133.077 41.9156C139.543 44.8343 145.313 49.099 150 54.425C154.687 49.099 160.457 44.8343 166.923 41.9156C173.39 38.997 180.405 37.4916 187.5 37.5H262.5C265.815 37.5 268.995 38.817 271.339 41.1612C273.683 43.5054 275 46.6848 275 50V250C275 253.315 273.683 256.495 271.339 258.839C268.995 261.183 265.815 262.5 262.5 262.5H162.5ZM250 237.5V62.5H187.5C180.87 62.5 174.511 65.134 169.822 69.8224C165.134 74.5108 162.5 80.8696 162.5 87.5V237.5H250ZM137.5 237.5V87.5C137.5 80.8696 134.866 74.5108 130.178 69.8224C125.489 65.134 119.13 62.5 112.5 62.5H50V237.5H137.5Z" fill="white"/>
</svg>
