<svg width="300" height="297" viewBox="0 0 300 297" fill="none" xmlns="http://www.w3.org/2000/svg">
<path d="M117.075 130.525C128.804 151.131 145.869 168.196 166.475 179.925L177.525 164.45C179.302 161.962 181.929 160.211 184.91 159.529C187.891 158.847 191.018 159.282 193.7 160.75C211.379 170.412 230.903 176.222 250.988 177.8C254.122 178.048 257.048 179.469 259.182 181.779C261.316 184.089 262.5 187.118 262.5 190.263V246.038C262.501 249.132 261.353 252.118 259.28 254.415C257.206 256.713 254.354 258.159 251.275 258.475C244.65 259.162 237.975 259.5 231.25 259.5C124.25 259.5 37.5 172.75 37.5 65.75C37.5 59.025 37.8375 52.35 38.525 45.725C38.8407 42.6462 40.2873 39.794 42.5849 37.7204C44.8824 35.6468 47.8676 34.4993 50.9625 34.5H106.737C109.882 34.4996 112.911 35.6844 115.221 37.8181C117.531 39.9519 118.952 42.8778 119.2 46.0125C120.778 66.0974 126.588 85.621 136.25 103.3C137.718 105.982 138.153 109.109 137.471 112.09C136.789 115.071 135.038 117.698 132.55 119.475L117.075 130.525V130.525ZM85.55 122.312L109.3 105.35C102.56 90.8012 97.9419 75.3605 95.5875 59.5H62.625C62.55 61.575 62.5125 63.6625 62.5125 65.75C62.5 158.95 138.05 234.5 231.25 234.5C233.337 234.5 235.425 234.462 237.5 234.375V201.413C221.639 199.058 206.199 194.44 191.65 187.7L174.688 211.45C167.858 208.796 161.225 205.664 154.838 202.075L154.113 201.662C129.595 187.709 109.291 167.405 95.3375 142.887L94.925 142.162C91.3363 135.775 88.2035 129.142 85.55 122.312V122.312Z" fill="white"/>
</svg>
