<svg width="300" height="297" viewBox="0 0 300 297" fill="none" xmlns="http://www.w3.org/2000/svg">
<path d="M77.9375 77.6625C62.0005 94.2036 52.2437 115.727 50.3071 138.615C48.3705 161.502 54.3721 184.359 67.3032 203.343C80.2343 222.326 99.3064 236.28 121.314 242.858C143.321 249.435 166.922 248.237 188.15 239.462C189.588 230.087 186.438 221.087 185.15 217.937C182.275 210.937 172.8 198.975 156.988 182.388C152.763 177.95 153.038 174.538 154.55 164.425L154.712 163.288C155.737 156.363 157.462 152.263 180.775 148.562C192.625 146.687 195.737 151.413 200.05 157.975L201.5 160.125C205.6 166.125 208.638 167.5 213.225 169.575C215.288 170.512 217.85 171.7 221.287 173.637C229.437 178.3 229.437 183.563 229.437 195.088V196.4C229.437 201.287 228.962 205.588 228.212 209.325C237.805 197.287 244.489 183.197 247.745 168.152C251.001 153.108 250.741 137.515 246.985 122.588C243.229 107.661 236.079 93.8013 226.091 82.0892C216.103 70.3772 203.547 61.1282 189.4 55.0625C182.488 59.725 173 66.3375 169.687 70.875C168 73.1875 165.6 85.025 157.812 86C155.787 86.25 153.05 86.075 150.15 85.8875C142.375 85.3875 131.75 84.7 128.35 93.9375C126.187 99.7875 125.812 115.687 132.8 123.937C133.925 125.25 134.138 127.687 133.375 130.425C132.375 134.012 130.363 136.2 129.725 136.65C128.525 135.95 126.125 133.162 124.487 131.275C120.575 126.712 115.675 121.025 109.35 119.275C107.05 118.637 104.525 118.113 102.062 117.588C95.2 116.15 87.4375 114.513 85.625 110.663C84.3 107.838 84.3125 103.95 84.3125 99.85C84.3125 94.6375 84.3125 88.75 81.7625 83.0375C80.876 80.9989 79.5731 79.168 77.9375 77.6625V77.6625ZM150 272C80.9625 272 25 216.037 25 147C25 77.9625 80.9625 22 150 22C219.037 22 275 77.9625 275 147C275 216.037 219.037 272 150 272Z" fill="white"/>
</svg>
