<svg width="300" height="300" viewBox="0 0 300 300" fill="none" xmlns="http://www.w3.org/2000/svg">
<path d="M162.5 249.225C187.716 246.016 210.764 233.327 226.96 213.735C243.156 194.143 251.284 169.119 249.692 143.75C248.1 118.38 236.908 94.5686 218.391 77.1547C199.873 59.7409 175.419 50.0315 150 50C124.549 49.981 100.049 59.6667 81.4917 77.0835C62.9341 94.5002 51.7155 118.337 50.1218 143.738C48.5281 169.139 56.6792 194.191 72.9143 213.791C89.1494 233.391 112.247 246.063 137.5 249.225V175H112.5V150H137.5V129.325C137.5 112.612 139.25 106.55 142.5 100.437C145.701 94.3898 150.65 89.4461 156.7 86.25C161.475 83.6875 167.412 82.15 177.787 81.4875C181.9 81.225 187.225 81.55 193.763 82.4875V106.237H187.5C176.038 106.237 171.3 106.775 168.475 108.288C166.789 109.154 165.417 110.527 164.55 112.213C163.05 115.038 162.5 117.838 162.5 129.313V150H193.75L187.5 175H162.5V249.225ZM150 275C80.9625 275 25 219.037 25 150C25 80.9625 80.9625 25 150 25C219.037 25 275 80.9625 275 150C275 219.037 219.037 275 150 275Z" fill="white"/>
</svg>
