<svg width="300" height="300" viewBox="0 0 300 300" fill="none" xmlns="http://www.w3.org/2000/svg">
<path d="M50 37.5H250C253.315 37.5 256.495 38.817 258.839 41.1612C261.183 43.5054 262.5 46.6848 262.5 50V250C262.5 253.315 261.183 256.495 258.839 258.839C256.495 261.183 253.315 262.5 250 262.5H50C46.6848 262.5 43.5054 261.183 41.1612 258.839C38.817 256.495 37.5 253.315 37.5 250V50C37.5 46.6848 38.817 43.5054 41.1612 41.1612C43.5054 38.817 46.6848 37.5 50 37.5V37.5ZM62.5 62.5V237.5H237.5V62.5H62.5ZM93.75 112.5C88.7772 112.5 84.0081 110.525 80.4917 107.008C76.9754 103.492 75 98.7228 75 93.75C75 88.7772 76.9754 84.0081 80.4917 80.4917C84.0081 76.9754 88.7772 75 93.75 75C98.7228 75 103.492 76.9754 107.008 80.4917C110.525 84.0081 112.5 88.7772 112.5 93.75C112.5 98.7228 110.525 103.492 107.008 107.008C103.492 110.525 98.7228 112.5 93.75 112.5V112.5ZM81.25 125H106.25V218.75H81.25V125ZM150 130.375C157.3 123.313 165.825 118.75 175 118.75C200.888 118.75 218.75 139.737 218.75 165.625V218.75H193.75V165.625C193.75 159.823 191.445 154.259 187.343 150.157C183.241 146.055 177.677 143.75 171.875 143.75C166.073 143.75 160.509 146.055 156.407 150.157C152.305 154.259 150 159.823 150 165.625V218.75H125V125H150V130.375Z" fill="white"/>
</svg>
