<svg width="300" height="297" viewBox="0 0 300 297" fill="none" xmlns="http://www.w3.org/2000/svg">
<path d="M275 247.087C274.977 250.37 273.664 253.512 271.344 255.835C269.023 258.157 265.883 259.474 262.6 259.5H37.4C34.1102 259.497 30.9562 258.187 28.6311 255.86C26.306 253.533 25 250.377 25 247.087V234.5H250V88.25L150 178.25L25 65.75V47C25 43.6848 26.317 40.5054 28.6612 38.1612C31.0054 35.817 34.1848 34.5 37.5 34.5H262.5C265.815 34.5 268.995 35.817 271.339 38.1612C273.683 40.5054 275 43.6848 275 47V247.087ZM55.425 59.5L150 144.625L244.575 59.5H55.425ZM0 184.5H100V209.5H0V184.5ZM0 122H62.5V147H0V122Z" fill="white"/>
</svg>
