<svg width="300" height="297" viewBox="0 0 300 297" fill="none" xmlns="http://www.w3.org/2000/svg">
<path d="M223.113 144.6L214.275 135.763L90.525 259.513H37.5V206.475L178.912 65.0504L249.625 135.763C251.968 138.107 253.285 141.286 253.285 144.6C253.285 147.915 251.968 151.094 249.625 153.438L161.25 241.825L143.562 224.15L223.113 144.6V144.6ZM196.6 118.088L178.912 100.413L62.5 216.825V234.513H80.175L196.6 118.088V118.088ZM231.95 29.7004L267.313 65.0504C269.656 67.3945 270.972 70.5733 270.972 73.8879C270.972 77.2024 269.656 80.3813 267.313 82.7254L249.625 100.413L196.6 47.3754L214.275 29.7004C216.619 27.357 219.798 26.0405 223.113 26.0405C226.427 26.0405 229.606 27.357 231.95 29.7004V29.7004Z" fill="white"/>
</svg>
