<svg width="300" height="297" viewBox="0 0 300 297" fill="none" xmlns="http://www.w3.org/2000/svg">
<path d="M25 46.9125C25.0229 43.6297 26.3363 40.4877 28.6564 38.1652C30.9766 35.8427 34.1173 34.5262 37.4 34.5H262.6C269.45 34.5 275 40.0625 275 46.9125V247.087C274.977 250.37 273.664 253.512 271.344 255.835C269.023 258.157 265.883 259.474 262.6 259.5H37.4C34.1102 259.497 30.9562 258.187 28.6311 255.86C26.306 253.533 25 250.377 25 247.087V46.9125ZM50 59.5V234.5H250V59.5H50ZM75 84.5H150V159.5H75V84.5ZM100 109.5V134.5H125V109.5H100ZM75 184.5H225V209.5H75V184.5ZM175 84.5H225V109.5H175V84.5ZM175 134.5H225V159.5H175V134.5Z" fill="white"/>
</svg>
