<svg width="300" height="300" viewBox="0 0 300 300" fill="none" xmlns="http://www.w3.org/2000/svg">
<path d="M237.5 87.5H300V112.5H237.5V87.5ZM212.5 150H300V175H212.5V150ZM250 212.5H300V237.5H250V212.5ZM25 275C25 248.478 35.5357 223.043 54.2893 204.289C73.043 185.536 98.4784 175 125 175C151.522 175 176.957 185.536 195.711 204.289C214.464 223.043 225 248.478 225 275H200C200 255.109 192.098 236.032 178.033 221.967C163.968 207.902 144.891 200 125 200C105.109 200 86.0322 207.902 71.967 221.967C57.9018 236.032 50 255.109 50 275H25ZM125 162.5C83.5625 162.5 50 128.938 50 87.5C50 46.0625 83.5625 12.5 125 12.5C166.438 12.5 200 46.0625 200 87.5C200 128.938 166.438 162.5 125 162.5ZM125 137.5C152.625 137.5 175 115.125 175 87.5C175 59.875 152.625 37.5 125 37.5C97.375 37.5 75 59.875 75 87.5C75 115.125 97.375 137.5 125 137.5Z" fill="white"/>
</svg>
