<svg width="300" height="300" viewBox="0 0 300 300" fill="none" xmlns="http://www.w3.org/2000/svg">
<path d="M162.55 230.289C167.848 229.471 173.269 230.378 178.013 232.876C185.685 236.91 194.446 238.383 203.015 237.082C211.585 235.781 219.513 231.773 225.642 225.644C231.771 219.515 235.779 211.586 237.081 203.017C238.382 194.447 236.908 185.686 232.875 178.014C230.377 173.271 229.47 167.85 230.288 162.551C232.267 149.908 231.231 136.976 227.266 124.809C223.3 112.642 216.516 101.583 207.467 92.5341C198.418 83.4851 187.36 76.7016 175.193 72.736C163.025 68.7704 150.093 67.735 137.45 69.714C132.152 70.5317 126.731 69.6246 121.988 67.1265C114.314 63.0901 105.551 61.6146 96.9785 62.9157C88.4065 64.2168 80.4755 68.2262 74.3454 74.3577C68.2153 80.4892 64.2077 88.4211 62.9085 96.9935C61.6094 105.566 63.0869 114.329 67.125 122.001C69.6231 126.745 70.5302 132.166 69.7125 137.464C67.7335 150.107 68.7689 163.039 72.7345 175.207C76.7001 187.374 83.4836 198.432 92.5327 207.481C101.582 216.53 112.64 223.314 124.807 227.279C136.975 231.245 149.907 232.281 162.55 230.301V230.289ZM150 256.251C134.661 256.254 119.503 252.936 105.568 246.524C91.6329 240.112 79.2515 230.759 69.2747 219.107C59.2979 207.456 51.9623 193.782 47.7719 179.027C43.5816 164.271 42.636 148.782 45 133.626C38.4842 121.233 36.1032 107.08 38.2051 93.2367C40.3071 79.3932 46.7817 66.585 56.6826 56.6841C66.5836 46.7831 79.3918 40.3085 93.2352 38.2066C107.079 36.1047 121.231 38.4856 133.625 45.0015C150.154 42.4196 167.059 43.7772 182.963 48.9637C198.868 54.1502 213.324 63.0191 225.153 74.8484C236.982 86.6777 245.851 101.133 251.038 117.038C256.224 132.943 257.582 149.848 255 166.376C261.516 178.77 263.897 192.923 261.795 206.766C259.693 220.61 253.218 233.418 243.317 243.319C233.416 253.22 220.608 259.694 206.765 261.796C192.921 263.898 178.769 261.517 166.375 255.001C161.038 255.826 155.563 256.251 150 256.251V256.251ZM150.663 212.501C115.625 212.501 100 195.251 100 182.326C100 175.676 104.875 171.051 111.6 171.051C126.6 171.051 122.688 192.614 150.663 192.614C164.95 192.614 172.863 184.814 172.863 176.851C172.863 172.051 170.512 166.751 161.075 164.401L129.95 156.614C104.875 150.314 100.325 136.714 100.325 123.964C100.325 97.464 125.225 87.5015 148.625 87.5015C170.125 87.5015 195.575 99.4515 195.575 115.351C195.575 122.164 189.575 126.139 182.925 126.139C170.138 126.139 172.488 108.414 146.675 108.414C133.888 108.414 126.725 114.189 126.725 122.489C126.725 130.776 136.763 133.439 145.5 135.426L168.45 140.539C193.625 146.189 200 160.951 200 174.864C200 196.414 183.438 212.501 150.188 212.501H150.663Z" fill="white"/>
</svg>
