<svg width="301" height="301" viewBox="0 0 301 301" fill="none" xmlns="http://www.w3.org/2000/svg">
<path d="M191.298 69.6909C181.798 69.6893 172.677 73.4174 165.897 80.073C159.118 86.7285 155.222 95.7796 155.048 105.278L154.698 124.966C154.678 126.023 154.434 127.064 153.983 128.02C153.532 128.976 152.884 129.826 152.081 130.514C151.279 131.203 150.34 131.713 149.326 132.013C148.312 132.313 147.246 132.395 146.198 132.253L126.686 129.603C101.011 126.103 76.4109 114.278 52.8109 94.6159C45.3359 135.991 59.9359 164.653 95.0984 186.766L116.936 200.491C117.974 201.143 118.836 202.039 119.447 203.102C120.058 204.164 120.399 205.36 120.441 206.584C120.483 207.809 120.224 209.026 119.687 210.127C119.15 211.229 118.351 212.182 117.361 212.903L97.4609 227.441C109.298 228.178 120.536 227.653 129.861 225.803C188.836 214.028 228.048 169.653 228.048 96.4534C228.048 90.4784 215.398 69.6909 191.298 69.6909V69.6909ZM130.048 104.816C130.267 92.7665 134.035 81.0493 140.88 71.1312C147.726 61.2131 157.346 53.5349 168.535 49.058C179.724 44.5811 191.985 43.5044 203.783 45.9627C215.581 48.4211 226.391 54.3052 234.861 62.8784C243.748 62.8159 251.311 65.0659 268.223 54.8159C264.036 75.3159 261.973 84.2159 253.048 96.4534C253.048 191.978 194.336 238.428 134.761 250.316C93.9109 258.466 34.5109 245.078 17.4859 227.303C26.1609 226.628 61.4109 222.841 81.7859 207.928C64.5484 196.566 -4.06407 156.191 41.0234 47.6409C62.1859 72.3534 83.6484 89.1784 105.398 98.1034C119.873 104.041 123.423 103.916 130.061 104.828L130.048 104.816Z" fill="white"/>
</svg>
